<svg xmlns="http://www.w3.org/2000/svg" width="1200" height="680" viewBox="0 0 1200 680"><defs><linearGradient id="b" x1="0" x2="1"><stop stop-color="#06182d"/><stop offset="1" stop-color="#0b4ca3"/></linearGradient><linearGradient id="g" x1="0" y1="0" x2="1" y2="1"><stop stop-color="#1b8cff"/><stop offset="1" stop-color="#63d6ff"/></linearGradient></defs><rect width="1200" height="680" rx="32" fill="url(#b)"/><rect x="56" y="48" width="1088" height="584" rx="22" fill="#f8fbff"/><rect x="56" y="48" width="210" height="584" rx="22" fill="#071d35"/><circle cx="104" cy="100" r="20" fill="#1687ff"/><text x="140" y="108" font-family="Arial" font-size="25" font-weight="700" fill="white">PHBank</text><g fill="#a9bed1" font-family="Arial" font-size="18"><text x="92" y="170">Dashboard</text><text x="92" y="218">Accounts</text><text x="92" y="266">Transactions</text><text x="92" y="314">KYC Review</text><text x="92" y="362">Loan Center</text><text x="92" y="410">Audit Center</text></g><text x="306" y="102" font-family="Arial" font-size="28" font-weight="700" fill="#10233b">Banking Overview</text><text x="306" y="132" font-family="Arial" font-size="16" fill="#6d7f91">Portfolio system architecture preview</text><g><rect x="306" y="168" width="185" height="108" rx="14" fill="#edf5ff"/><rect x="511" y="168" width="185" height="108" rx="14" fill="#edf5ff"/><rect x="716" y="168" width="185" height="108" rx="14" fill="#edf5ff"/><rect x="921" y="168" width="185" height="108" rx="14" fill="#edf5ff"/></g><g font-family="Arial" fill="#617184" font-size="15"><text x="326" y="200">ACTIVE ACCOUNTS</text><text x="531" y="200">TRANSACTIONS</text><text x="736" y="200">KYC REVIEWS</text><text x="941" y="200">LOAN WORKFLOW</text></g><g font-family="Arial" font-size="28" font-weight="700" fill="#0d5bbc"><text x="326" y="244">RBAC</text><text x="531" y="244">Atomic</text><text x="736" y="244">Hybrid</text><text x="941" y="244">Audited</text></g><rect x="306" y="310" width="500" height="270" rx="16" fill="#f1f6fb"/><text x="330" y="346" font-family="Arial" font-size="20" font-weight="700" fill="#10233b">Activity &amp; controls</text><polyline points="340,520 395,460 450,480 510,402 570,435 635,365 700,398 765,350" fill="none" stroke="url(#g)" stroke-width="9" stroke-linecap="round" stroke-linejoin="round"/><g fill="#1687ff"><circle cx="395" cy="460" r="8"/><circle cx="510" cy="402" r="8"/><circle cx="635" cy="365" r="8"/><circle cx="765" cy="350" r="8"/></g><rect x="832" y="310" width="274" height="270" rx="16" fill="#071d35"/><text x="860" y="350" font-family="Arial" font-size="20" font-weight="700" fill="white">Security model</text><g font-family="Arial" font-size="17" fill="#c6d7e8"><text x="860" y="394">✓ Role permissions</text><text x="860" y="430">✓ Audit trail</text><text x="860" y="466">✓ PIN authorization</text><text x="860" y="502">✓ Verified email</text><text x="860" y="538">✓ Keyset pagination</text></g></svg>